<?xml version="1.0" encoding="UTF-8" standalone="no"?>
<!-- Created with Inkscape (http://www.inkscape.org/) -->

<svg
   xmlns:dc="http://purl.org/dc/elements/1.1/"
   xmlns:cc="http://creativecommons.org/ns#"
   xmlns:rdf="http://www.w3.org/1999/02/22-rdf-syntax-ns#"
   xmlns:svg="http://www.w3.org/2000/svg"
   xmlns="http://www.w3.org/2000/svg"
   xmlns:sodipodi="http://sodipodi.sourceforge.net/DTD/sodipodi-0.dtd"
   xmlns:inkscape="http://www.inkscape.org/namespaces/inkscape"
   width="350.00003pt"
   height="350.00012pt"
   viewBox="0 0 437.50004 437.50015"
   id="svg2"
   version="1.1"
   inkscape:version="0.91 r13725"
   sodipodi:docname="clockface.svg">
  <defs
     id="defs4" />
  <sodipodi:namedview
     id="base"
     pagecolor="#000000"
     bordercolor="#666666"
     borderopacity="1.0"
     inkscape:pageopacity="0"
     inkscape:pageshadow="2"
     inkscape:zoom="0.31973524"
     inkscape:cx="-142.48636"
     inkscape:cy="218.75009"
     inkscape:document-units="px"
     inkscape:current-layer="layer1"
     showgrid="false"
     units="pt"
     inkscape:window-width="1680"
     inkscape:window-height="956"
     inkscape:window-x="0"
     inkscape:window-y="1"
     inkscape:window-maximized="1"
     inkscape:snap-center="true"
     inkscape:snap-object-midpoints="true"
     showguides="true"
     inkscape:guide-bbox="true"
     fit-margin-top="0"
     fit-margin-left="0"
     fit-margin-right="0"
     fit-margin-bottom="0" />
  <metadata
     id="metadata7">
    <rdf:RDF>
      <cc:Work
         rdf:about="">
        <dc:format>image/svg+xml</dc:format>
        <dc:type
           rdf:resource="http://purl.org/dc/dcmitype/StillImage" />
        <dc:title></dc:title>
      </cc:Work>
    </rdf:RDF>
  </metadata>
  <g
     inkscape:label="Layer 1"
     inkscape:groupmode="layer"
     id="layer1"
     transform="translate(-15.624983,-416.73715)">
    <path
       id="use10174"
       style="opacity:1;fill:#ffffff;fill-opacity:1;stroke:none;stroke-width:0.04048981;stroke-miterlimit:4;stroke-dasharray:none;stroke-dashoffset:0;stroke-opacity:1"
       d="m 233.8418,416.73716 0,6.26953 a 212.5,212.5 0 0 1 0.5332,-0.0195 212.5,212.5 0 0 1 0.53516,0.0273 l 0,-6.27734 -1.06836,0 z m -21.80078,1.14257 -1.0625,0.11133 0.67969,6.46289 a 212.5,212.5 0 0 1 1.06054,-0.1289 l -0.67773,-6.44532 z m 44.66992,0 -0.65625,6.24024 a 212.5,212.5 0 0 1 1.05664,0.16015 l 0.66016,-6.28906 -1.06055,-0.11133 z m -67.29297,3.52735 -1.04492,0.2207 1.35351,6.36719 a 212.5,212.5 0 0 1 1.04102,-0.23438 l -1.34961,-6.35351 z m 89.91602,0 -1.31446,6.17968 a 212.5,212.5 0 0 1 1.03711,0.26563 l 1.32227,-6.22461 -1.04492,-0.2207 z m -112.04883,5.87109 -1.01563,0.33008 2.01368,6.19531 a 212.5,212.5 0 0 1 1.01367,-0.33594 l -2.01172,-6.18945 z m 134.17969,0 L 299.5,433.327 a 212.5,212.5 0 0 1 1.00391,0.36523 l 1.97656,-6.08398 -1.01562,-0.33008 z m -155.57422,8.1543 -0.97657,0.43359 2.65039,5.95313 a 212.5,212.5 0 0 1 0.97461,-0.43555 l -2.64843,-5.95117 z m 176.9707,0 -2.60156,5.84375 a 212.5,212.5 0 0 1 0.96289,0.46484 l 2.61523,-5.875 -0.97656,-0.43359 z m -197.39844,10.34375 -0.92578,0.53515 3.25586,5.64063 a 212.5,212.5 0 0 1 0.92774,-0.53125 l -3.25782,-5.64453 z m 217.82422,0 -3.21289,5.5664 a 212.5,212.5 0 0 1 0.91016,0.5586 l 3.22851,-5.58985 -0.92578,-0.53515 z m -237.05664,12.42383 -0.86523,0.6289 3.82421,5.26367 a 212.5,212.5 0 0 1 0.86915,-0.62304 l -3.82813,-5.26953 z m 256.29102,0 -3.79297,5.22265 a 212.5,212.5 0 0 1 0.84961,0.64649 l 3.80664,-5.24024 -0.86328,-0.6289 z m -274.121097,14.36718 -0.79492,0.71485 4.3457,4.82617 a 212.5,212.5 0 0 1 0.80274,-0.70508 l -4.35352,-4.83594 z m 291.951167,0 -4.33398,4.8125 a 212.5,212.5 0 0 1 0.78125,0.72852 l 4.3457,-4.82617 -0.79297,-0.71485 z m -308.181637,16.15039 -0.71484,0.79493 4.8125,4.33203 a 212.5,212.5 0 0 1 0.72852,-0.78125 l -4.82618,-4.34571 z m 324.412107,0 -4.82617,4.34571 a 212.5,212.5 0 0 1 0.70508,0.80078 l 4.83398,-4.35156 -0.71289,-0.79493 z m -338.865227,17.75977 -0.62695,0.86328 5.2207,3.79297 a 212.5,212.5 0 0 1 0.64648,-0.84961 l -5.24023,-3.80664 z m 353.316407,0 -5.26368,3.82422 a 212.5,212.5 0 0 1 0.62305,0.86914 l 5.26953,-3.83008 -0.6289,-0.86328 z m -365.833987,19.17187 -0.5332,0.92579 5.5664,3.21289 a 212.5,212.5 0 0 1 0.5586,-0.91016 l -5.5918,-3.22852 z m 378.351557,0 -5.64062,3.25586 a 212.5,212.5 0 0 1 0.5332,0.92774 l 5.64258,-3.25781 -0.53516,-0.92579 z m -388.796867,20.37696 -0.4336,0.97461 5.84375,2.60156 a 212.5,212.5 0 0 1 0.46289,-0.96094 l -5.87304,-2.61523 z m 399.242187,0 -5.95118,2.65039 a 212.5,212.5 0 0 1 0.43555,0.97461 l 5.95117,-2.65039 -0.43554,-0.97461 z m -407.499997,21.35547 -0.33008,1.01562 6.05078,1.96485 a 212.5,212.5 0 0 1 0.36523,-1.00196 l -6.08593,-1.97851 z m 415.757807,0 -6.19531,2.01367 a 212.5,212.5 0 0 1 0.33593,1.01367 l 6.18946,-2.01172 -0.33008,-1.01562 z m -421.736327,22.10156 -0.22266,1.04492 6.18164,1.31445 a 212.5,212.5 0 0 1 0.26368,-1.0371 l -6.22266,-1.32227 z m 427.716797,0 -6.36719,1.35351 a 212.5,212.5 0 0 1 0.23437,1.04297 l 6.35547,-1.35156 -0.22265,-1.04492 z m -431.355467,22.60742 -0.11133,1.0625 6.24023,0.65625 a 212.5,212.5 0 0 1 0.16016,-1.05859 l -6.28906,-0.66016 z m 434.992187,0 -6.46094,0.67969 a 212.5,212.5 0 0 1 0.1289,1.06055 l 6.44336,-0.67774 -0.11132,-1.0625 z m -436.246097,22.86328 0,1.06641 6.26953,0 a 212.5,212.5 0 0 1 -0.0195,-0.5332 212.5,212.5 0 0 1 0.0273,-0.53321 l -6.27735,0 z m 431.230467,0 a 212.5,212.5 0 0 1 0.0195,0.53321 212.5,212.5 0 0 1 -0.0273,0.5332 l 6.27734,0 0,-1.06641 -6.26953,0 z m -423.642577,22.18946 -6.44531,0.67773 0.11133,1.0625 6.46289,-0.67969 a 212.5,212.5 0 0 1 -0.12891,-1.06054 z m 422.531247,0.0215 a 212.5,212.5 0 0 1 -0.16015,1.05859 l 6.28711,0.66016 0.11132,-1.0625 -6.23828,-0.65625 z m -419.095697,21.93164 -6.35352,1.34961 0.22266,1.04492 6.36523,-1.35351 a 212.5,212.5 0 0 1 -0.23437,-1.04102 z m 415.626947,0.0352 a 212.5,212.5 0 0 1 -0.26367,1.03711 l 6.22266,1.32226 0.22265,-1.04492 -6.18164,-1.31445 z m -409.919917,21.43359 -6.18945,2.01172 0.33008,1.01562 6.19531,-2.01367 a 212.5,212.5 0 0 1 -0.33594,-1.01367 z m 404.179687,0.0469 a 212.5,212.5 0 0 1 -0.36524,1.0039 l 6.08399,1.97656 0.33008,-1.01562 -6.04883,-1.96484 z m -396.263667,20.71289 -5.95118,2.64843 0.4336,0.97461 5.95312,-2.65039 a 212.5,212.5 0 0 1 -0.43554,-0.97265 z m 388.316397,0.0469 a 212.5,212.5 0 0 1 -0.46484,0.96094 l 5.87305,2.61523 0.43554,-0.97461 -5.84375,-2.60156 z m -378.279287,19.76953 -5.64258,3.25781 0.5332,0.92579 5.64063,-3.25586 a 212.5,212.5 0 0 1 -0.53125,-0.92774 z m 368.210927,0.0449 a 212.5,212.5 0 0 1 -0.55859,0.91016 l 5.58984,3.22852 0.53516,-0.92579 -5.56641,-3.21289 z m -356.160147,18.61915 -5.26953,3.82812 0.62695,0.86328 5.26367,-3.82422 a 212.5,212.5 0 0 1 -0.62109,-0.86718 z m 344.080067,0.0352 a 212.5,212.5 0 0 1 -0.64648,0.84961 l 5.24024,3.80664 0.6289,-0.86328 -5.22266,-3.79297 z m -330.150387,17.26758 -4.83398,4.35351 0.71484,0.79493 4.82618,-4.34571 a 212.5,212.5 0 0 1 -0.70704,-0.80273 z m 316.193357,0.0215 a 212.5,212.5 0 0 1 -0.72656,0.78125 l 4.82617,4.34571 0.71289,-0.79493 -4.8125,-4.33203 z m -300.531247,15.73633 -4.3457,4.82617 0.79492,0.71485 4.33203,-4.8125 a 212.5,212.5 0 0 1 -0.78125,-0.72852 z m 284.847657,0 a 212.5,212.5 0 0 1 -0.80078,0.70508 l 4.35351,4.83594 0.79297,-0.71485 -4.3457,-4.82617 z m -17.23828,14.01563 a 212.5,212.5 0 0 1 -0.86914,0.62304 l 3.83008,5.26953 0.86328,-0.6289 -3.82422,-5.26367 z m -250.38867,0.0234 -3.80664,5.24024 0.86523,0.6289 3.79297,-5.2207 a 212.5,212.5 0 0 1 -0.85156,-0.64844 z m 231.78515,12.11719 a 212.5,212.5 0 0 1 -0.92773,0.53125 l 3.25976,5.64453 0.92383,-0.53515 -3.25586,-5.64063 z m -213.1914,0.0508 -3.22657,5.58985 0.92383,0.53515 3.21485,-5.5664 a 212.5,212.5 0 0 1 -0.91211,-0.5586 z m 193.42187,10.08203 a 212.5,212.5 0 0 1 -0.97461,0.43555 l 2.64844,5.95117 0.97656,-0.43359 -2.65039,-5.95313 z m -173.6582,0.0781 -2.61524,5.875 0.97657,0.43359 2.60156,-5.84375 a 212.5,212.5 0 0 1 -0.96289,-0.46484 z m 152.9375,7.9375 a 212.5,212.5 0 0 1 -1.01367,0.33594 l 2.01172,6.18945 1.01562,-0.33008 -2.01367,-6.19531 z m -132.2207,0.10937 -1.97657,6.08594 1.01563,0.33008 1.96484,-6.04883 a 212.5,212.5 0 0 1 -1.0039,-0.36719 z m 110.77929,5.69922 a 212.5,212.5 0 0 1 -1.04101,0.23438 l 1.34961,6.35351 1.04492,-0.2207 -1.35352,-6.36719 z m -89.33008,0.14258 -1.32226,6.22461 1.04492,0.2207 1.31445,-6.17968 a 212.5,212.5 0 0 1 -1.03711,-0.26563 z m 67.39649,3.40039 a 212.5,212.5 0 0 1 -1.05859,0.12695 l 0.67773,6.44532 1.06055,-0.11133 -0.67969,-6.46094 z m -45.45313,0.17188 -0.66015,6.28906 1.0625,0.11133 0.65625,-6.24024 a 212.5,212.5 0 0 1 -1.0586,-0.16015 z m 22.20313,1.26562 0,6.27735 1.06836,0 0,-6.26954 a 212.5,212.5 0 0 1 -0.53516,0.0195 212.5,212.5 0 0 1 -0.5332,-0.0273 z m -0.002,-431.22268 0,15.64454 a 203.125,203.125 0 0 1 0.53516,-0.0195 203.125,203.125 0 0 1 0.5332,0.0274 l 0,-15.65235 -1.06836,0 z m -108.37892,29.04102 -0.9238,0.53321 7.93749,13.75 a 203.125,203.125 0 0 1 0.92578,-0.53125 l -7.93947,-13.75196 z m 217.82619,0 -7.89649,13.67774 a 203.125,203.125 0 0 1 0.90821,0.55859 l 7.91211,-13.70312 -0.92383,-0.53321 z m -298.089887,79.87304 -0.5332,0.92384 13.6778,7.89648 a 203.125,203.125 0 0 1 0.5586,-0.9082 l -13.7032,-7.91212 z m 378.353557,0 -13.75,7.9375 a 203.125,203.125 0 0 1 0.53125,0.92579 l 13.75195,-7.93945 -0.5332,-0.92384 z m -407.925757,109.30273 0,1.06836 15.6445,0 a 203.125,203.125 0 0 1 -0.0195,-0.53514 203.125,203.125 0 0 1 0.0273,-0.53322 l -15.6523,0 z m 421.855447,0 a 203.125,203.125 0 0 1 0.0195,0.53322 203.125,203.125 0 0 1 -0.0273,0.53514 l 15.65235,0 0,-1.06836 -15.64453,0 z m -379.064447,101.50783 -13.752,7.93945 0.5332,0.92383 13.75,-7.93946 a 203.125,203.125 0 0 1 -0.5312,-0.92382 z m 351.990227,0.043 a 203.125,203.125 0 0 1 -0.5586,0.90819 l 13.70313,7.91211 0.5332,-0.92382 -13.67773,-7.89648 z m -74.13477,74.41015 a 203.125,203.125 0 0 1 -0.92383,0.53125 l 7.93946,13.75196 0.92383,-0.53321 -7.93946,-13.75 z m -203.82226,0.0469 -7.9121,13.70312 0.9238,0.53321 7.8965,-13.67775 a 203.125,203.125 0 0 1 -0.9082,-0.55858 z m 101.39062,27.62304 0,15.65235 1.06836,0 0,-15.64453 a 203.125,203.125 0 0 1 -0.5332,0.0195 203.125,203.125 0 0 1 -0.53516,-0.0273 z"
       inkscape:connector-curvature="0" />
  </g>
</svg>
